<svg xmlns="http://www.w3.org/2000/svg" viewBox="0 0 400 400">
  <defs>
    <linearGradient id="sky2" x1="0" y1="0" x2="1" y2="1">
      <stop offset="0%" stop-color="#0c3560"/>
      <stop offset="100%" stop-color="#081d33"/>
    </linearGradient>
  </defs>
  <rect width="400" height="400" fill="url(#sky2)"/>
  <path d="M0,400 L0,280 L70,210 L130,270 L190,170 L260,250 L320,190 L400,240 L400,400 Z" fill="#10477f" opacity="0.55"/>
  <!-- lane curve -->
  <path d="M-20,250 Q200,150 420,250" stroke="#FFFFFF" stroke-opacity="0.15" stroke-width="10" fill="none"/>
  <path d="M-20,290 Q200,190 420,290" stroke="#FFFFFF" stroke-opacity="0.12" stroke-width="10" fill="none"/>
  <path d="M-20,330 Q200,230 420,330" stroke="#FFFFFF" stroke-opacity="0.1" stroke-width="10" fill="none"/>
  <!-- stretching figure -->
  <g transform="translate(150,180)" fill="#FFD23F">
    <circle cx="40" cy="0" r="13"/>
    <path d="M40,14 L40,80 M40,40 L0,30 M40,40 L85,55 M40,80 L15,150 M40,80 L70,150" stroke="#FFD23F" stroke-width="11" stroke-linecap="round" fill="none"/>
  </g>
  <g transform="translate(250,200)" fill="#FFFFFF" opacity="0.85">
    <circle cx="20" cy="0" r="11"/>
    <path d="M20,12 L20,68 M20,32 L-15,20 M20,32 L55,45 M20,68 L0,128 M20,68 L42,128" stroke="#FFFFFF" stroke-width="9" stroke-linecap="round" fill="none"/>
  </g>
  <circle cx="60" cy="60" r="26" fill="#F2994A" opacity="0.85"/>
</svg>
